<svg xmlns="http://www.w3.org/2000/svg" viewBox="0 0 24 24" aria-hidden="true">
  <path
    fill="#EA4335"
    d="M12 10.2v3.9h5.4c-.2 1.3-1.6 3.9-5.4 3.9-3.2 0-5.9-2.7-5.9-6s2.7-6 5.9-6c1.8 0 3 .8 3.7 1.4l2.5-2.4C16.6 3.5 14.5 2.6 12 2.6 6.9 2.6 2.8 6.8 2.8 12s4.1 9.4 9.2 9.4c5.3 0 8.8-3.7 8.8-8.9 0-.6-.1-1.1-.2-1.6H12Z"
  />
  <path
    fill="#34A853"
    d="M2.8 7.6 6 10c.9-2.1 3.1-3.6 6-3.6 1.8 0 3 .8 3.7 1.4l2.5-2.4C16.6 3.5 14.5 2.6 12 2.6 8 2.6 4.5 4.9 2.8 7.6Z"
  />
  <path
    fill="#FBBC05"
    d="M12 21.4c2.4 0 4.5-.8 6-2.3l-2.8-2.2c-.8.6-1.9 1.1-3.2 1.1-3.7 0-5.1-2.5-5.4-3.8l-3.2 2.5c1.7 3 4.8 4.7 8.6 4.7Z"
  />
  <path
    fill="#4285F4"
    d="M2.8 16.6 6 14.1c-.2-.5-.3-1.1-.3-2.1 0-.9.1-1.6.3-2.1L2.8 7.6C2.1 9 1.7 10.4 1.7 12s.4 3 1.1 4.6Z"
  />
</svg>
